<mxfile host="Electron" modified="2023-04-11T19:45:26.492Z" agent="Mozilla/5.0 (Macintosh; Intel Mac OS X 10_15_7) AppleWebKit/537.36 (KHTML, like Gecko) draw.io/21.1.2 Chrome/106.0.5249.199 Electron/21.4.3 Safari/537.36" etag="IQsmrfIr4636LBMxyz8S" version="21.1.2" type="device">
  <diagram name="Page-1" id="j39anbiHqxycgj2Vby9E">
    <mxGraphModel dx="1088" dy="679" grid="1" gridSize="10" guides="1" tooltips="1" connect="1" arrows="1" fold="1" page="1" pageScale="1" pageWidth="1600" pageHeight="1200" math="0" shadow="0">
      <root>
        <mxCell id="0" />
        <mxCell id="1" parent="0" />
        <mxCell id="RbBalypHwQqMpXMawHjO-1" value="Lab&lt;br&gt;Firewall" style="whiteSpace=wrap;html=1;aspect=fixed;" parent="1" vertex="1">
          <mxGeometry x="120" y="120" width="80" height="80" as="geometry" />
        </mxCell>
        <mxCell id="RbBalypHwQqMpXMawHjO-2" value="WAN" style="ellipse;shape=cloud;whiteSpace=wrap;html=1;" parent="1" vertex="1">
          <mxGeometry y="60" width="80" height="80" as="geometry" />
        </mxCell>
        <mxCell id="RbBalypHwQqMpXMawHjO-3" value="" style="endArrow=classic;startArrow=classic;html=1;rounded=0;exitX=0.8;exitY=0.8;exitDx=0;exitDy=0;exitPerimeter=0;entryX=0;entryY=0.5;entryDx=0;entryDy=0;" parent="1" source="RbBalypHwQqMpXMawHjO-2" target="RbBalypHwQqMpXMawHjO-1" edge="1">
          <mxGeometry width="50" height="50" relative="1" as="geometry">
            <mxPoint x="310" y="380" as="sourcePoint" />
            <mxPoint x="360" y="330" as="targetPoint" />
          </mxGeometry>
        </mxCell>
        <mxCell id="RbBalypHwQqMpXMawHjO-21" value="Active&lt;br&gt;Directory" style="whiteSpace=wrap;html=1;aspect=fixed;" parent="1" vertex="1">
          <mxGeometry x="40" y="280" width="80" height="80" as="geometry" />
        </mxCell>
        <mxCell id="RbBalypHwQqMpXMawHjO-22" value="" style="endArrow=classic;startArrow=classic;html=1;rounded=0;entryX=0.5;entryY=1;entryDx=0;entryDy=0;exitX=1;exitY=0.5;exitDx=0;exitDy=0;" parent="1" source="RbBalypHwQqMpXMawHjO-21" target="RbBalypHwQqMpXMawHjO-1" edge="1">
          <mxGeometry width="50" height="50" relative="1" as="geometry">
            <mxPoint x="135" y="345" as="sourcePoint" />
            <mxPoint x="185" y="295" as="targetPoint" />
            <Array as="points">
              <mxPoint x="160" y="320" />
            </Array>
          </mxGeometry>
        </mxCell>
        <mxCell id="RbBalypHwQqMpXMawHjO-23" value="MinIO&lt;br&gt;Server" style="whiteSpace=wrap;html=1;aspect=fixed;" parent="1" vertex="1">
          <mxGeometry x="40" y="400" width="80" height="80" as="geometry" />
        </mxCell>
        <mxCell id="RbBalypHwQqMpXMawHjO-24" value="" style="endArrow=classic;startArrow=classic;html=1;rounded=0;exitX=1;exitY=0.5;exitDx=0;exitDy=0;entryX=0.5;entryY=1;entryDx=0;entryDy=0;" parent="1" source="RbBalypHwQqMpXMawHjO-23" target="RbBalypHwQqMpXMawHjO-1" edge="1">
          <mxGeometry width="50" height="50" relative="1" as="geometry">
            <mxPoint x="300" y="470" as="sourcePoint" />
            <mxPoint x="350" y="420" as="targetPoint" />
            <Array as="points">
              <mxPoint x="160" y="440" />
            </Array>
          </mxGeometry>
        </mxCell>
        <mxCell id="RbBalypHwQqMpXMawHjO-42" value="Network:&amp;nbsp; admin&lt;br&gt;192.168.1.0/24" style="edgeLabel;html=1;align=center;verticalAlign=middle;resizable=0;points=[];" parent="RbBalypHwQqMpXMawHjO-24" vertex="1" connectable="0">
          <mxGeometry x="0.6143" y="-1" relative="1" as="geometry">
            <mxPoint x="39" y="406" as="offset" />
          </mxGeometry>
        </mxCell>
        <mxCell id="6uV4f1uO-UUEoO7pm-lm-1" value="192.168.1.1" style="edgeLabel;html=1;align=center;verticalAlign=middle;resizable=0;points=[];" parent="RbBalypHwQqMpXMawHjO-24" vertex="1" connectable="0">
          <mxGeometry x="0.8786" y="1" relative="1" as="geometry">
            <mxPoint as="offset" />
          </mxGeometry>
        </mxCell>
        <mxCell id="RbBalypHwQqMpXMawHjO-25" value="" style="endArrow=classic;startArrow=classic;html=1;rounded=0;exitX=1;exitY=0.5;exitDx=0;exitDy=0;entryX=0.5;entryY=1;entryDx=0;entryDy=0;" parent="1" source="RbBalypHwQqMpXMawHjO-23" target="RbBalypHwQqMpXMawHjO-4" edge="1">
          <mxGeometry width="50" height="50" relative="1" as="geometry">
            <mxPoint x="300" y="470" as="sourcePoint" />
            <mxPoint x="350" y="420" as="targetPoint" />
            <Array as="points">
              <mxPoint x="160" y="440" />
              <mxPoint x="160" y="640" />
              <mxPoint x="380" y="640" />
            </Array>
          </mxGeometry>
        </mxCell>
        <mxCell id="6uV4f1uO-UUEoO7pm-lm-6" value="192.168.1.2" style="edgeLabel;html=1;align=center;verticalAlign=middle;resizable=0;points=[];" parent="RbBalypHwQqMpXMawHjO-25" vertex="1" connectable="0">
          <mxGeometry x="0.9167" y="1" relative="1" as="geometry">
            <mxPoint y="1" as="offset" />
          </mxGeometry>
        </mxCell>
        <mxCell id="RbBalypHwQqMpXMawHjO-39" value="Internal&lt;br&gt;Windows&lt;br&gt;Host" style="whiteSpace=wrap;html=1;aspect=fixed;" parent="1" vertex="1">
          <mxGeometry x="680" y="120" width="80" height="80" as="geometry" />
        </mxCell>
        <mxCell id="RbBalypHwQqMpXMawHjO-40" value="" style="endArrow=classic;startArrow=classic;html=1;rounded=0;exitX=1;exitY=0.5;exitDx=0;exitDy=0;entryX=0;entryY=0.5;entryDx=0;entryDy=0;" parent="1" source="RbBalypHwQqMpXMawHjO-1" target="RbBalypHwQqMpXMawHjO-39" edge="1">
          <mxGeometry width="50" height="50" relative="1" as="geometry">
            <mxPoint x="300" y="460" as="sourcePoint" />
            <mxPoint x="350" y="410" as="targetPoint" />
          </mxGeometry>
        </mxCell>
        <mxCell id="RbBalypHwQqMpXMawHjO-41" value="Data Network" style="edgeLabel;html=1;align=center;verticalAlign=middle;resizable=0;points=[];container=0;" parent="RbBalypHwQqMpXMawHjO-40" vertex="1" connectable="0">
          <mxGeometry x="-0.2042" y="-2" relative="1" as="geometry">
            <mxPoint x="29" y="-2" as="offset" />
          </mxGeometry>
        </mxCell>
        <mxCell id="6uV4f1uO-UUEoO7pm-lm-2" value="192.168.1.5&lt;br&gt;ad.dc-lab.nccoe.test" style="text;html=1;align=center;verticalAlign=middle;resizable=0;points=[];autosize=1;strokeColor=none;fillColor=none;" parent="1" vertex="1">
          <mxGeometry x="15" y="360" width="130" height="40" as="geometry" />
        </mxCell>
        <mxCell id="6uV4f1uO-UUEoO7pm-lm-5" value="192.168.1.4&lt;br&gt;minio.dc-lab.nccoe.test" style="text;html=1;align=center;verticalAlign=middle;resizable=0;points=[];autosize=1;strokeColor=none;fillColor=none;" parent="1" vertex="1">
          <mxGeometry x="5" y="480" width="150" height="40" as="geometry" />
        </mxCell>
        <mxCell id="6uV4f1uO-UUEoO7pm-lm-7" value="&lt;font style=&quot;font-size: 10px;&quot;&gt;VENDORNET&lt;/font&gt;" style="ellipse;shape=cloud;whiteSpace=wrap;html=1;" parent="1" vertex="1">
          <mxGeometry y="160" width="80" height="80" as="geometry" />
        </mxCell>
        <mxCell id="6uV4f1uO-UUEoO7pm-lm-8" value="" style="endArrow=classic;startArrow=classic;html=1;rounded=0;exitX=0.88;exitY=0.25;exitDx=0;exitDy=0;exitPerimeter=0;entryX=0;entryY=0.5;entryDx=0;entryDy=0;" parent="1" source="6uV4f1uO-UUEoO7pm-lm-7" target="RbBalypHwQqMpXMawHjO-1" edge="1">
          <mxGeometry width="50" height="50" relative="1" as="geometry">
            <mxPoint x="80" y="110" as="sourcePoint" />
            <mxPoint x="130" y="170" as="targetPoint" />
          </mxGeometry>
        </mxCell>
        <mxCell id="RbBalypHwQqMpXMawHjO-20" value="" style="group;fillColor=#ffe6cc;strokeColor=#d79b00;container=0;" parent="1" vertex="1" connectable="0">
          <mxGeometry x="200" y="241" width="360" height="360" as="geometry" />
        </mxCell>
        <mxCell id="RbBalypHwQqMpXMawHjO-26" value="" style="endArrow=classic;startArrow=classic;html=1;rounded=0;entryX=0.5;entryY=1;entryDx=0;entryDy=0;" parent="1" target="RbBalypHwQqMpXMawHjO-18" edge="1">
          <mxGeometry width="50" height="50" relative="1" as="geometry">
            <mxPoint x="380" y="601" as="sourcePoint" />
            <mxPoint x="270" y="461" as="targetPoint" />
          </mxGeometry>
        </mxCell>
        <mxCell id="RbBalypHwQqMpXMawHjO-4" value="remote.dc_lab.nccoe.org&lt;br&gt;&lt;br&gt;&lt;br&gt;&lt;br&gt;&lt;br&gt;&lt;br&gt;&lt;br&gt;&lt;br&gt;&lt;br&gt;&lt;br&gt;&lt;br&gt;&lt;br&gt;&lt;br&gt;&lt;br&gt;&lt;br&gt;&lt;br&gt;&lt;br&gt;&lt;br&gt;&lt;br&gt;&lt;br&gt;&lt;br&gt;&lt;br&gt;" style="whiteSpace=wrap;html=1;aspect=fixed;fillColor=#FFF2CC;container=0;" parent="1" vertex="1">
          <mxGeometry x="200" y="241" width="360" height="360" as="geometry" />
        </mxCell>
        <mxCell id="RbBalypHwQqMpXMawHjO-7" value="guacd" style="whiteSpace=wrap;html=1;aspect=fixed;container=0;" parent="1" vertex="1">
          <mxGeometry x="380" y="301" width="70" height="70" as="geometry" />
        </mxCell>
        <mxCell id="RbBalypHwQqMpXMawHjO-8" value="guacamole&lt;br&gt;staff" style="whiteSpace=wrap;html=1;aspect=fixed;container=0;" parent="1" vertex="1">
          <mxGeometry x="220" y="301" width="70" height="70" as="geometry" />
        </mxCell>
        <mxCell id="RbBalypHwQqMpXMawHjO-9" value="guacDB&lt;br&gt;(mariadb)" style="whiteSpace=wrap;html=1;aspect=fixed;container=0;" parent="1" vertex="1">
          <mxGeometry x="460" y="301" width="70" height="70" as="geometry" />
        </mxCell>
        <mxCell id="RbBalypHwQqMpXMawHjO-16" value="guacamole&lt;br&gt;vendornet" style="whiteSpace=wrap;html=1;aspect=fixed;container=0;" parent="1" vertex="1">
          <mxGeometry x="300" y="301" width="70" height="70" as="geometry" />
        </mxCell>
        <mxCell id="RbBalypHwQqMpXMawHjO-18" value="rproxy&lt;br&gt;(nginx)" style="whiteSpace=wrap;html=1;aspect=fixed;container=0;" parent="1" vertex="1">
          <mxGeometry x="345" y="484" width="70" height="70" as="geometry" />
        </mxCell>
        <mxCell id="RbBalypHwQqMpXMawHjO-27" value="" style="endArrow=classic;startArrow=classic;html=1;rounded=0;exitX=0.5;exitY=0;exitDx=0;exitDy=0;entryX=0.5;entryY=1;entryDx=0;entryDy=0;" parent="1" source="RbBalypHwQqMpXMawHjO-18" target="RbBalypHwQqMpXMawHjO-9" edge="1">
          <mxGeometry width="50" height="50" relative="1" as="geometry">
            <mxPoint x="220" y="511" as="sourcePoint" />
            <mxPoint x="270" y="461" as="targetPoint" />
            <Array as="points">
              <mxPoint x="380" y="431" />
              <mxPoint x="495" y="431" />
            </Array>
          </mxGeometry>
        </mxCell>
        <mxCell id="RbBalypHwQqMpXMawHjO-33" value="" style="endArrow=classic;startArrow=classic;html=1;rounded=0;exitX=0.5;exitY=0;exitDx=0;exitDy=0;entryX=0.5;entryY=1;entryDx=0;entryDy=0;" parent="1" source="RbBalypHwQqMpXMawHjO-18" target="RbBalypHwQqMpXMawHjO-8" edge="1">
          <mxGeometry width="50" height="50" relative="1" as="geometry">
            <mxPoint x="220" y="511" as="sourcePoint" />
            <mxPoint x="280" y="381" as="targetPoint" />
            <Array as="points">
              <mxPoint x="380" y="431" />
              <mxPoint x="255" y="431" />
            </Array>
          </mxGeometry>
        </mxCell>
        <mxCell id="Wc-wodaVvmo2lyUh-DHU-7" value="" style="endArrow=classic;startArrow=classic;html=1;rounded=0;exitX=0.5;exitY=1;exitDx=0;exitDy=0;entryX=0.5;entryY=1;entryDx=0;entryDy=0;" parent="1" source="RbBalypHwQqMpXMawHjO-16" target="RbBalypHwQqMpXMawHjO-7" edge="1">
          <mxGeometry width="50" height="50" relative="1" as="geometry">
            <mxPoint x="330" y="411" as="sourcePoint" />
            <mxPoint x="380" y="361" as="targetPoint" />
            <Array as="points">
              <mxPoint x="335" y="431" />
              <mxPoint x="380" y="431" />
              <mxPoint x="415" y="431" />
            </Array>
          </mxGeometry>
        </mxCell>
        <mxCell id="Wc-wodaVvmo2lyUh-DHU-8" value="" style="endArrow=classic;startArrow=classic;html=1;rounded=0;entryX=0.5;entryY=1;entryDx=0;entryDy=0;exitX=0.5;exitY=1;exitDx=0;exitDy=0;" parent="1" source="RbBalypHwQqMpXMawHjO-18" target="RbBalypHwQqMpXMawHjO-4" edge="1">
          <mxGeometry width="50" height="50" relative="1" as="geometry">
            <mxPoint x="330" y="411" as="sourcePoint" />
            <mxPoint x="380" y="361" as="targetPoint" />
          </mxGeometry>
        </mxCell>
        <mxCell id="Wc-wodaVvmo2lyUh-DHU-22" value="" style="endArrow=classic;startArrow=classic;html=1;rounded=0;exitX=0.5;exitY=1;exitDx=0;exitDy=0;entryX=0.5;entryY=1;entryDx=0;entryDy=0;" parent="1" source="RbBalypHwQqMpXMawHjO-4" target="Wc-wodaVvmo2lyUh-DHU-12" edge="1">
          <mxGeometry width="50" height="50" relative="1" as="geometry">
            <mxPoint x="410" y="370" as="sourcePoint" />
            <mxPoint x="460" y="320" as="targetPoint" />
            <Array as="points">
              <mxPoint x="380" y="640" />
              <mxPoint x="580" y="640" />
              <mxPoint x="780" y="640" />
            </Array>
          </mxGeometry>
        </mxCell>
        <mxCell id="Wc-wodaVvmo2lyUh-DHU-24" value="192.168.1.6" style="edgeLabel;html=1;align=center;verticalAlign=middle;resizable=0;points=[];" parent="Wc-wodaVvmo2lyUh-DHU-22" vertex="1" connectable="0">
          <mxGeometry x="0.8894" y="-1" relative="1" as="geometry">
            <mxPoint y="1" as="offset" />
          </mxGeometry>
        </mxCell>
        <mxCell id="Wc-wodaVvmo2lyUh-DHU-23" value="" style="group;fillColor=#E6FFCC;" parent="1" vertex="1" connectable="0">
          <mxGeometry x="600" y="240" width="360" height="360" as="geometry" />
        </mxCell>
        <mxCell id="Wc-wodaVvmo2lyUh-DHU-10" value="" style="group;fillColor=#ffe6cc;strokeColor=#d79b00;container=0;" parent="Wc-wodaVvmo2lyUh-DHU-23" vertex="1" connectable="0">
          <mxGeometry width="360" height="360" as="geometry" />
        </mxCell>
        <mxCell id="Wc-wodaVvmo2lyUh-DHU-12" value="identity.dc_lab.nccoe.org&lt;br&gt;&lt;br&gt;&lt;br&gt;&lt;br&gt;&lt;br&gt;&lt;br&gt;&lt;br&gt;&lt;br&gt;&lt;br&gt;&lt;br&gt;&lt;br&gt;&lt;br&gt;&lt;br&gt;&lt;br&gt;&lt;br&gt;&lt;br&gt;&lt;br&gt;&lt;br&gt;&lt;br&gt;&lt;br&gt;&lt;br&gt;" style="whiteSpace=wrap;html=1;aspect=fixed;fillColor=#d5e8d4;container=0;strokeColor=#82b366;" parent="Wc-wodaVvmo2lyUh-DHU-23" vertex="1">
          <mxGeometry width="360" height="360" as="geometry" />
        </mxCell>
        <mxCell id="Wc-wodaVvmo2lyUh-DHU-11" value="" style="endArrow=classic;startArrow=classic;html=1;rounded=0;entryX=0.5;entryY=1;entryDx=0;entryDy=0;" parent="Wc-wodaVvmo2lyUh-DHU-23" target="Wc-wodaVvmo2lyUh-DHU-17" edge="1">
          <mxGeometry width="50" height="50" relative="1" as="geometry">
            <mxPoint x="180" y="360" as="sourcePoint" />
            <mxPoint x="70" y="220" as="targetPoint" />
          </mxGeometry>
        </mxCell>
        <mxCell id="Wc-wodaVvmo2lyUh-DHU-13" value="directory&lt;br&gt;(OpenLDAP)" style="whiteSpace=wrap;html=1;aspect=fixed;container=0;" parent="Wc-wodaVvmo2lyUh-DHU-23" vertex="1">
          <mxGeometry x="180" y="60" width="70" height="70" as="geometry" />
        </mxCell>
        <mxCell id="Wc-wodaVvmo2lyUh-DHU-14" value="KeyCloak" style="whiteSpace=wrap;html=1;aspect=fixed;container=0;" parent="Wc-wodaVvmo2lyUh-DHU-23" vertex="1">
          <mxGeometry x="20" y="60" width="70" height="70" as="geometry" />
        </mxCell>
        <mxCell id="Wc-wodaVvmo2lyUh-DHU-15" value="phpLDAP&lt;br&gt;Admin" style="whiteSpace=wrap;html=1;aspect=fixed;container=0;" parent="Wc-wodaVvmo2lyUh-DHU-23" vertex="1">
          <mxGeometry x="260" y="60" width="70" height="70" as="geometry" />
        </mxCell>
        <mxCell id="Wc-wodaVvmo2lyUh-DHU-16" value="identityDB&lt;br&gt;(mariaDB)" style="whiteSpace=wrap;html=1;aspect=fixed;container=0;" parent="Wc-wodaVvmo2lyUh-DHU-23" vertex="1">
          <mxGeometry x="100" y="60" width="70" height="70" as="geometry" />
        </mxCell>
        <mxCell id="Wc-wodaVvmo2lyUh-DHU-17" value="rproxy&lt;br&gt;(nginx)" style="whiteSpace=wrap;html=1;aspect=fixed;container=0;" parent="Wc-wodaVvmo2lyUh-DHU-23" vertex="1">
          <mxGeometry x="145" y="243" width="70" height="70" as="geometry" />
        </mxCell>
        <mxCell id="Wc-wodaVvmo2lyUh-DHU-18" value="" style="endArrow=classic;startArrow=classic;html=1;rounded=0;exitX=0.5;exitY=0;exitDx=0;exitDy=0;entryX=0.5;entryY=1;entryDx=0;entryDy=0;" parent="Wc-wodaVvmo2lyUh-DHU-23" source="Wc-wodaVvmo2lyUh-DHU-17" target="Wc-wodaVvmo2lyUh-DHU-15" edge="1">
          <mxGeometry width="50" height="50" relative="1" as="geometry">
            <mxPoint x="20" y="270" as="sourcePoint" />
            <mxPoint x="70" y="220" as="targetPoint" />
            <Array as="points">
              <mxPoint x="180" y="190" />
              <mxPoint x="295" y="190" />
            </Array>
          </mxGeometry>
        </mxCell>
        <mxCell id="Wc-wodaVvmo2lyUh-DHU-19" value="" style="endArrow=classic;startArrow=classic;html=1;rounded=0;exitX=0.5;exitY=0;exitDx=0;exitDy=0;entryX=0.5;entryY=1;entryDx=0;entryDy=0;" parent="Wc-wodaVvmo2lyUh-DHU-23" source="Wc-wodaVvmo2lyUh-DHU-17" target="Wc-wodaVvmo2lyUh-DHU-14" edge="1">
          <mxGeometry width="50" height="50" relative="1" as="geometry">
            <mxPoint x="20" y="270" as="sourcePoint" />
            <mxPoint x="80" y="140" as="targetPoint" />
            <Array as="points">
              <mxPoint x="180" y="190" />
              <mxPoint x="55" y="190" />
            </Array>
          </mxGeometry>
        </mxCell>
        <mxCell id="Wc-wodaVvmo2lyUh-DHU-20" value="" style="endArrow=classic;startArrow=classic;html=1;rounded=0;exitX=0.5;exitY=1;exitDx=0;exitDy=0;entryX=0.5;entryY=1;entryDx=0;entryDy=0;" parent="Wc-wodaVvmo2lyUh-DHU-23" source="Wc-wodaVvmo2lyUh-DHU-16" target="Wc-wodaVvmo2lyUh-DHU-13" edge="1">
          <mxGeometry width="50" height="50" relative="1" as="geometry">
            <mxPoint x="130" y="170" as="sourcePoint" />
            <mxPoint x="180" y="120" as="targetPoint" />
            <Array as="points">
              <mxPoint x="135" y="190" />
              <mxPoint x="180" y="190" />
              <mxPoint x="215" y="190" />
            </Array>
          </mxGeometry>
        </mxCell>
        <mxCell id="Wc-wodaVvmo2lyUh-DHU-21" value="" style="endArrow=classic;startArrow=classic;html=1;rounded=0;entryX=0.5;entryY=1;entryDx=0;entryDy=0;exitX=0.5;exitY=1;exitDx=0;exitDy=0;" parent="Wc-wodaVvmo2lyUh-DHU-23" source="Wc-wodaVvmo2lyUh-DHU-17" target="Wc-wodaVvmo2lyUh-DHU-12" edge="1">
          <mxGeometry width="50" height="50" relative="1" as="geometry">
            <mxPoint x="130" y="170" as="sourcePoint" />
            <mxPoint x="180" y="120" as="targetPoint" />
          </mxGeometry>
        </mxCell>
        <mxCell id="-V4cJF17WB5h-45hGdcM-1" value="Ansible&lt;br&gt;Workstation" style="whiteSpace=wrap;html=1;aspect=fixed;" vertex="1" parent="1">
          <mxGeometry x="40" y="520" width="80" height="80" as="geometry" />
        </mxCell>
        <mxCell id="-V4cJF17WB5h-45hGdcM-2" value="" style="endArrow=classic;startArrow=classic;html=1;rounded=0;entryX=0.5;entryY=1;entryDx=0;entryDy=0;exitX=1;exitY=0.5;exitDx=0;exitDy=0;" edge="1" parent="1" source="-V4cJF17WB5h-45hGdcM-1" target="RbBalypHwQqMpXMawHjO-1">
          <mxGeometry width="50" height="50" relative="1" as="geometry">
            <mxPoint x="130" y="330" as="sourcePoint" />
            <mxPoint x="170" y="210" as="targetPoint" />
            <Array as="points">
              <mxPoint x="160" y="560" />
            </Array>
          </mxGeometry>
        </mxCell>
        <mxCell id="-V4cJF17WB5h-45hGdcM-3" value="192.168.1.8&lt;br&gt;ansible.dc-lab.nccoe.test" style="text;html=1;align=center;verticalAlign=middle;resizable=0;points=[];autosize=1;strokeColor=none;fillColor=none;" vertex="1" parent="1">
          <mxGeometry y="600" width="160" height="40" as="geometry" />
        </mxCell>
      </root>
    </mxGraphModel>
  </diagram>
</mxfile>
